<mxfile host="app.diagrams.net" modified="2024-07-15T13:53:59.891Z" agent="Mozilla/5.0 (Windows NT 10.0; Win64; x64) AppleWebKit/537.36 (KHTML, like Gecko) Chrome/126.0.0.0 Safari/537.36" version="24.6.5" etag="NgoRkF0q58Tciu8i9KnM" type="github">
  <diagram name="Page-1" id="vZtPhp0VgT9XKUIyWFpL">
    <mxGraphModel>
      <root>
        <mxCell id="0" />
        <mxCell id="1" parent="0" />
      </root>
    </mxGraphModel>
  </diagram>
</mxfile>
